<svg width="206" height="29" viewBox="0 0 206 29" fill="none" xmlns="http://www.w3.org/2000/svg">
<path d="M7.20287 5.77122C8.02862 5.22372 8.99798 4.94996 10.1065 4.94996C10.7213 4.94996 11.2912 5.03972 11.8208 5.21025C12.3503 5.38528 12.8171 5.63659 13.221 5.9642C13.6249 6.2918 13.957 6.69122 14.2173 7.15346C14.4775 7.62018 14.6481 8.14974 14.7333 8.74213H19.3243C19.1762 7.49901 18.8441 6.39502 18.3236 5.43015C17.803 4.46528 17.1298 3.64851 16.3041 2.97983C15.4783 2.31115 14.5314 1.80404 13.4678 1.45399C12.3997 1.10394 11.2464 0.928921 10.0032 0.928921C8.11389 0.928921 6.41751 1.35975 4.90513 2.22589C3.39724 3.08754 2.19901 4.34411 1.3194 5.98664C0.439801 7.62916 0 9.62173 0 11.9643C0 14.298 0.435314 16.2906 1.30594 17.9331C2.17657 19.5756 3.36583 20.8322 4.87372 21.6983C6.38161 22.5645 8.09145 22.9998 10.0077 22.9998C11.3855 22.9998 12.6196 22.7933 13.7146 22.376C14.8096 21.9586 15.7521 21.3931 16.5464 20.6751C17.3407 19.9571 17.9735 19.1448 18.4447 18.2338C18.9159 17.3227 19.2121 16.3713 19.3288 15.3885L14.7378 15.3661C14.6346 15.9405 14.4461 16.4521 14.1769 16.8964C13.9076 17.3407 13.571 17.7222 13.1626 18.0363C12.7587 18.346 12.292 18.5838 11.7714 18.7454C11.2508 18.9069 10.6854 18.9877 10.0795 18.9877C8.99349 18.9877 8.04208 18.7229 7.21633 18.1889C6.39058 17.6593 5.74883 16.8695 5.29108 15.8283C4.83333 14.7872 4.60445 13.4992 4.60445 11.9688C4.60445 10.4789 4.83333 9.21334 5.28659 8.16769C5.73986 7.11755 6.37712 6.32322 7.20287 5.77122Z" fill="#B0B8C1"/>
<path d="M34.0988 7.6741C33.457 7.2343 32.73 6.90669 31.9088 6.70025C31.0875 6.48933 30.2303 6.38611 29.3328 6.38611C28.0448 6.38611 26.9139 6.57908 25.94 6.96952C24.9662 7.35547 24.1718 7.91195 23.5525 8.62551C22.9377 9.34355 22.5248 10.1917 22.3139 11.1701L26.4471 11.5067C26.5997 10.9771 26.9139 10.5328 27.3896 10.1783C27.8653 9.82374 28.5025 9.64872 29.3103 9.64872C30.0733 9.64872 30.6612 9.83272 31.0785 10.1962C31.4959 10.5597 31.7023 11.0758 31.7023 11.74V11.8028C31.7023 12.1439 31.5722 12.4042 31.3164 12.5792C31.0561 12.7543 30.6432 12.8844 30.0688 12.9742C29.4943 13.0639 28.7404 13.1537 27.8024 13.2524C27.0036 13.3287 26.2452 13.4633 25.5227 13.6518C24.8001 13.8403 24.1539 14.1185 23.5884 14.491C23.023 14.8635 22.5742 15.3527 22.2466 15.9585C21.919 16.5689 21.7529 17.3183 21.7529 18.2114C21.7529 19.275 21.9863 20.1591 22.4485 20.8681C22.9153 21.5772 23.548 22.1113 24.3513 22.4748C25.1547 22.8338 26.0702 23.0133 27.0979 23.0133C27.8967 23.0133 28.5968 22.9056 29.2071 22.6947C29.813 22.4837 30.338 22.1831 30.7689 21.8016C31.2042 21.4201 31.5497 20.9803 31.8055 20.4732H31.9312V22.7081H36.1676V11.8387C36.1676 10.8829 35.9836 10.0571 35.6112 9.37048C35.2432 8.67936 34.736 8.11839 34.0988 7.6741ZM31.7337 16.9458C31.7337 17.5113 31.5901 18.0184 31.3029 18.4672C31.0157 18.916 30.6208 19.2705 30.1181 19.5308C29.6155 19.7911 29.0321 19.9257 28.3769 19.9257C27.6902 19.9257 27.1293 19.7686 26.685 19.45C26.2407 19.1314 26.0208 18.6691 26.0208 18.0588C26.0208 17.6414 26.1285 17.2869 26.3439 17.0042C26.5593 16.7214 26.8645 16.4971 27.2549 16.3265C27.6454 16.1605 28.1031 16.0348 28.6282 15.9585C28.875 15.9226 29.1443 15.8822 29.445 15.8374C29.7456 15.7925 30.0463 15.7386 30.347 15.6803C30.6477 15.6219 30.917 15.5546 31.1593 15.4828C31.4016 15.411 31.5901 15.3257 31.7292 15.236V16.9458H31.7337Z" fill="#B0B8C1"/>
<path d="M48.0054 6.3637C47.1034 6.3637 46.3046 6.61951 45.6135 7.1356C44.9223 7.65169 44.4287 8.40564 44.1325 9.40641H43.9664V6.59707H39.6357V22.7037H44.1011V13.589C44.1011 12.9338 44.2492 12.3504 44.5454 11.8478C44.8416 11.3451 45.2499 10.9502 45.7615 10.6675C46.2776 10.3847 46.861 10.2411 47.5163 10.2411C47.8259 10.2411 48.1625 10.2636 48.535 10.3129C48.903 10.3623 49.1947 10.4162 49.4056 10.479V6.51629C49.2082 6.46692 48.9838 6.43102 48.7235 6.39961C48.4722 6.38166 48.2298 6.3637 48.0054 6.3637Z" fill="#B0B8C1"/>
<path d="M63.5017 8.41907C62.815 7.74142 62.0072 7.2343 61.0917 6.89323C60.1762 6.55216 59.1799 6.38611 58.1208 6.38611C56.5411 6.38611 55.1634 6.73615 53.9921 7.43625C52.8208 8.13634 51.9142 9.11018 51.2725 10.3623C50.6307 11.6144 50.3076 13.0684 50.3076 14.7244C50.3076 16.4252 50.6307 17.8927 51.2725 19.1359C51.9142 20.379 52.8342 21.3349 54.0235 22.008C55.2127 22.6812 56.6399 23.0178 58.2958 23.0178C59.6242 23.0178 60.7955 22.8113 61.8143 22.403C62.833 21.9946 63.6632 21.4201 64.3095 20.6841C64.9557 19.9481 65.3865 19.082 65.593 18.0902L61.4597 17.8165C61.3071 18.2204 61.0828 18.5659 60.7866 18.8442C60.4949 19.1224 60.1403 19.3333 59.7274 19.4724C59.3146 19.6116 58.8613 19.6834 58.3632 19.6834C57.6137 19.6834 56.9675 19.5263 56.4244 19.2122C55.8769 18.898 55.4596 18.4492 55.1589 17.8703C54.8627 17.2914 54.7146 16.6003 54.7146 15.8059V15.797H65.6827V14.5718C65.6827 13.203 65.4897 12.0048 65.1038 10.9816C64.7268 9.9494 64.1883 9.10121 63.5017 8.41907ZM54.7281 13.0235C54.755 12.4446 54.8986 11.915 55.1679 11.4348C55.4596 10.9143 55.868 10.4969 56.3885 10.1872C56.9091 9.87759 57.5105 9.72052 58.1881 9.72052C58.8389 9.72052 59.4088 9.86413 59.9025 10.1469C60.3961 10.4296 60.7821 10.82 61.0603 11.3182C61.3386 11.8163 61.4777 12.3863 61.4777 13.028H54.7281V13.0235Z" fill="#B0B8C1"/>
<path d="M81.1511 8.41907C80.4645 7.74142 79.6567 7.2343 78.7411 6.89323C77.8212 6.55216 76.8294 6.38611 75.7702 6.38611C74.1905 6.38611 72.8128 6.73615 71.6415 7.43625C70.4702 8.13634 69.5637 9.11018 68.9219 10.3623C68.2802 11.6144 67.957 13.0684 67.957 14.7244C67.957 16.4252 68.2802 17.8927 68.9219 19.1359C69.5637 20.379 70.4837 21.3349 71.6729 22.008C72.8667 22.6812 74.2893 23.0178 75.9453 23.0178C77.2736 23.0178 78.445 22.8113 79.4637 22.403C80.4824 21.9946 81.3126 21.4201 81.9589 20.6841C82.6051 19.9481 83.0359 19.082 83.2424 18.0902L79.1091 17.8165C78.9566 18.2204 78.7322 18.5659 78.436 18.8442C78.1443 19.1224 77.7897 19.3333 77.3769 19.4724C76.964 19.6116 76.5107 19.6834 76.0126 19.6834C75.2631 19.6834 74.6169 19.5263 74.0739 19.2122C73.5264 18.898 73.109 18.4492 72.8083 17.8703C72.5121 17.2914 72.364 16.6003 72.364 15.8059V15.797H83.3321V14.5718C83.3321 13.203 83.1392 12.0048 82.7532 10.9816C82.3762 9.9494 81.8377 9.10121 81.1511 8.41907ZM72.3775 13.0235C72.4044 12.4446 72.548 11.915 72.8173 11.4348C73.109 10.9143 73.5174 10.4969 74.038 10.1872C74.5585 9.87759 75.1599 9.72052 75.8376 9.72052C76.4883 9.72052 77.0582 9.86413 77.5519 10.1469C78.0455 10.4296 78.4315 10.82 78.7097 11.3182C78.988 11.8163 79.1271 12.3863 79.1271 13.028H72.3775V13.0235Z" fill="#B0B8C1"/>
<path d="M94.6201 6.3637C93.718 6.3637 92.9192 6.61951 92.2281 7.1356C91.537 7.65169 91.0433 8.40564 90.7516 9.40641H90.5856V6.59707H86.2549V22.7037H90.7202V13.589C90.7202 12.9338 90.8683 12.3504 91.1645 11.8478C91.4607 11.3451 91.8691 10.9502 92.3807 10.6675C92.8968 10.3847 93.4802 10.2411 94.1354 10.2411C94.4451 10.2411 94.7816 10.2636 95.1541 10.3129C95.5266 10.3623 95.8138 10.4162 96.0248 10.479V6.51629C95.8273 6.46692 95.6029 6.43102 95.3426 6.39961C95.0868 6.38166 94.8445 6.3637 94.6201 6.3637Z" fill="#B0B8C1"/>
<path d="M99.0899 17.9645C98.3988 17.9645 97.8064 18.2113 97.3127 18.7005C96.8191 19.1897 96.5723 19.7776 96.5723 20.4642C96.5723 21.1553 96.8191 21.7477 97.3127 22.2413C97.8064 22.735 98.3988 22.9818 99.0899 22.9818C99.5432 22.9818 99.9605 22.8696 100.338 22.6408C100.714 22.4119 101.02 22.1112 101.253 21.7297C101.486 21.3483 101.603 20.9264 101.603 20.4642C101.603 19.7776 101.352 19.1897 100.849 18.7005C100.346 18.2068 99.7586 17.9645 99.0899 17.9645Z" fill="#B0B8C1"/>
<path d="M111.041 19.0238L118.446 9.50075V6.59717H105.453V10.1605H113.065V10.2771L105.18 20.0425V22.7038H118.719V19.1405H111.041V19.0238Z" fill="#B0B8C1"/>
<path d="M126.613 6.59717H122.147V22.7038H126.613V6.59717Z" fill="#B0B8C1"/>
<path d="M124.392 0C123.737 0 123.167 0.219901 122.691 0.66419C122.215 1.10848 121.978 1.63804 121.978 2.25286C121.978 2.87666 122.215 3.40622 122.691 3.85051C123.167 4.2948 123.737 4.5147 124.401 4.5147C125.065 4.5147 125.635 4.2948 126.106 3.85051C126.578 3.40622 126.815 2.87217 126.815 2.25286C126.815 1.63804 126.578 1.10848 126.106 0.66419C125.635 0.219901 125.065 0 124.392 0Z" fill="#B0B8C1"/>
<path d="M144.812 10.0616C144.219 8.83643 143.425 7.91644 142.433 7.30161C141.441 6.69128 140.355 6.38611 139.184 6.38611C138.282 6.38611 137.528 6.53869 136.922 6.84386C136.316 7.14903 135.827 7.526 135.455 7.97478C135.082 8.42356 134.795 8.86784 134.602 9.30316H134.404V6.59703H130.002V28.7442H134.467V20.1232H134.602C134.804 20.5719 135.1 21.0117 135.482 21.4515C135.867 21.8869 136.361 22.2504 136.967 22.5376C137.573 22.8248 138.309 22.9684 139.175 22.9684C140.4 22.9684 141.504 22.6543 142.496 22.0215C143.483 21.3887 144.269 20.4553 144.843 19.2211C145.422 17.987 145.709 16.4701 145.709 14.675C145.7 12.8261 145.404 11.2868 144.812 10.0616ZM140.746 17.1298C140.485 17.8479 140.099 18.4044 139.597 18.8083C139.094 19.2122 138.479 19.4096 137.752 19.4096C137.034 19.4096 136.419 19.2122 135.917 18.8172C135.414 18.4223 135.028 17.8703 134.763 17.1568C134.499 16.4432 134.364 15.6085 134.364 14.6526C134.364 13.6967 134.499 12.862 134.763 12.1574C135.028 11.4528 135.414 10.9053 135.912 10.5193C136.41 10.1334 137.025 9.94042 137.752 9.94042C138.488 9.94042 139.103 10.1379 139.61 10.5373C140.113 10.9367 140.494 11.4887 140.755 12.1933C141.015 12.8979 141.141 13.7191 141.141 14.6481C141.141 15.586 141.01 16.4118 140.746 17.1298Z" fill="#B0B8C1"/>
<rect x="154.303" y="12.9767" width="50.6977" height="14.7674" rx="7.38372" stroke="#B0B8C1" stroke-width="2"/>
<path d="M170.657 18.6983C171.43 18.6983 172.036 19.001 172.473 19.6065C172.911 20.208 173.129 21.0342 173.129 22.085C173.129 23.167 172.903 24.0049 172.45 24.5987C172.001 25.1924 171.387 25.4893 170.61 25.4893C169.84 25.4893 169.237 25.21 168.799 24.6514H168.676L168.377 25.3721H167.012V16.2549H168.799V18.376C168.799 18.6455 168.776 19.0772 168.729 19.6709H168.799C169.217 19.0225 169.836 18.6983 170.657 18.6983ZM170.083 20.128C169.641 20.128 169.319 20.2647 169.116 20.5381C168.913 20.8076 168.807 21.2549 168.799 21.8799V22.0733C168.799 22.7764 168.903 23.2803 169.11 23.585C169.321 23.8897 169.653 24.042 170.106 24.042C170.473 24.042 170.764 23.874 170.979 23.5381C171.198 23.1983 171.307 22.7061 171.307 22.0615C171.307 21.417 171.198 20.9346 170.979 20.6143C170.76 20.2901 170.461 20.128 170.083 20.128ZM177.319 19.9697C176.94 19.9697 176.643 20.0908 176.428 20.333C176.213 20.5713 176.09 20.9112 176.059 21.3526H178.567C178.559 20.9112 178.444 20.5713 178.221 20.333C177.999 20.0908 177.698 19.9697 177.319 19.9697ZM177.571 25.4893C176.516 25.4893 175.692 25.1983 175.098 24.6162C174.504 24.0342 174.208 23.21 174.208 22.1436C174.208 21.0459 174.481 20.1983 175.028 19.6006C175.579 18.999 176.338 18.6983 177.307 18.6983C178.233 18.6983 178.954 18.9619 179.469 19.4893C179.985 20.0166 180.243 20.7451 180.243 21.6748V22.542H176.018C176.038 23.0498 176.188 23.4463 176.469 23.7315C176.751 24.0166 177.145 24.1592 177.653 24.1592C178.047 24.1592 178.42 24.1182 178.772 24.0362C179.124 23.9541 179.491 23.8233 179.874 23.6436V25.0264C179.561 25.1826 179.227 25.2979 178.872 25.3721C178.516 25.4502 178.083 25.4893 177.571 25.4893ZM184.456 24.0655C184.768 24.0655 185.143 23.9971 185.581 23.8604V25.1905C185.135 25.3897 184.588 25.4893 183.94 25.4893C183.225 25.4893 182.704 25.3096 182.376 24.9502C182.051 24.5869 181.889 24.044 181.889 23.3213V20.1631H181.034V19.4072L182.018 18.8096L182.534 17.4268H183.676V18.8213H185.51V20.1631H183.676V23.3213C183.676 23.5752 183.747 23.7627 183.887 23.8838C184.032 24.0049 184.221 24.0655 184.456 24.0655ZM191.071 25.3721L190.725 24.4815H190.678C190.377 24.8604 190.067 25.124 189.747 25.2725C189.43 25.417 189.016 25.4893 188.504 25.4893C187.876 25.4893 187.379 25.3096 187.016 24.9502C186.657 24.5908 186.477 24.0791 186.477 23.4151C186.477 22.7197 186.719 22.208 187.204 21.8799C187.692 21.5479 188.426 21.3643 189.407 21.3291L190.543 21.294V21.0069C190.543 20.3428 190.204 20.0108 189.524 20.0108C189.001 20.0108 188.385 20.169 187.678 20.4854L187.086 19.2783C187.84 18.8838 188.676 18.6865 189.594 18.6865C190.473 18.6865 191.147 18.878 191.616 19.2608C192.085 19.6436 192.319 20.2256 192.319 21.0069V25.3721H191.071ZM190.543 22.3369L189.852 22.3604C189.333 22.376 188.946 22.4697 188.692 22.6416C188.438 22.8135 188.311 23.0752 188.311 23.4268C188.311 23.9307 188.6 24.1826 189.178 24.1826C189.592 24.1826 189.922 24.0635 190.168 23.8252C190.418 23.5869 190.543 23.2705 190.543 22.876V22.3369Z" fill="#B0B8C1"/>
</svg>
