<svg width="172" height="24" viewBox="0 0 172 24" fill="none" xmlns="http://www.w3.org/2000/svg">
<path d="M6.01405 4.81869C6.70351 4.36155 7.51287 4.13298 8.4384 4.13298C8.95175 4.13298 9.42763 4.20792 9.86978 4.35031C10.3119 4.49644 10.7016 4.70628 11.0389 4.97982C11.3761 5.25335 11.6534 5.58684 11.8707 5.97279C12.088 6.36248 12.2304 6.80464 12.3016 7.29925H16.1349C16.0112 6.26131 15.7339 5.33953 15.2993 4.53391C14.8646 3.72829 14.3026 3.04633 13.6131 2.48801C12.9236 1.9297 12.133 1.50628 11.245 1.21401C10.3532 0.92174 9.39016 0.775604 8.35222 0.775604C6.7747 0.775604 5.35831 1.13532 4.09555 1.85851C2.83653 2.57794 1.83606 3.62712 1.10164 4.99855C0.367213 6.36998 0 8.03368 0 9.98965C0 11.9381 0.363466 13.6018 1.0904 14.9732C1.81733 16.3447 2.8103 17.3939 4.06932 18.117C5.32833 18.8402 6.75597 19.2037 8.35596 19.2037C9.50632 19.2037 10.5368 19.0313 11.451 18.6828C12.3653 18.3344 13.1522 17.8622 13.8154 17.2627C14.4787 16.6632 15.007 15.985 15.4005 15.2243C15.7939 14.4636 16.0412 13.6693 16.1386 12.8487L12.3054 12.8299C12.2192 13.3096 12.0618 13.7367 11.837 14.1077C11.6122 14.4786 11.3311 14.7971 10.9902 15.0594C10.6529 15.318 10.2632 15.5166 9.82856 15.6515C9.3939 15.7864 8.92177 15.8538 8.41592 15.8538C7.50913 15.8538 6.71475 15.6327 6.02529 15.1868C5.33583 14.7447 4.8 14.0852 4.4178 13.2159C4.03559 12.3466 3.84449 11.2711 3.84449 9.99339C3.84449 8.74937 4.03559 7.69269 4.41405 6.81963C4.7925 5.94281 5.32459 5.27958 6.01405 4.81869Z" fill="#0056FF"/>
<path d="M28.4701 6.4075C27.9342 6.04029 27.3272 5.76675 26.6415 5.59439C25.9558 5.41828 25.2401 5.33209 24.4907 5.33209C23.4153 5.33209 22.471 5.49322 21.6579 5.81921C20.8448 6.14146 20.1815 6.6061 19.6644 7.20188C19.1511 7.80141 18.8064 8.50961 18.6302 9.32647L22.0813 9.6075C22.2087 9.16534 22.471 8.79439 22.8682 8.49837C23.2654 8.20235 23.7975 8.05621 24.4719 8.05621C25.1089 8.05621 25.5998 8.20984 25.9483 8.51335C26.2968 8.81687 26.4691 9.24778 26.4691 9.80235V9.85481C26.4691 10.1396 26.3605 10.3569 26.1469 10.503C25.9295 10.6492 25.5848 10.7578 25.1052 10.8328C24.6256 10.9077 23.9961 10.9827 23.2129 11.0651C22.5459 11.1288 21.9127 11.2412 21.3094 11.3986C20.7061 11.556 20.1665 11.7883 19.6944 12.0993C19.2223 12.4103 18.8476 12.8187 18.574 13.3246C18.3005 13.8342 18.1619 14.46 18.1619 15.2056C18.1619 16.0937 18.3567 16.8319 18.7427 17.4239C19.1324 18.0159 19.6607 18.4618 20.3314 18.7653C21.0021 19.0651 21.7665 19.215 22.6246 19.215C23.2916 19.215 23.8761 19.1251 24.3857 18.9489C24.8916 18.7728 25.33 18.5218 25.6897 18.2033C26.0532 17.8848 26.3417 17.5176 26.5553 17.0941H26.6602V18.9602H30.1975V9.88478C30.1975 9.08666 30.0438 8.3972 29.7328 7.82389C29.4256 7.24684 29.0021 6.77846 28.4701 6.4075ZM26.4953 14.1489C26.4953 14.6211 26.3754 15.0445 26.1356 15.4192C25.8958 15.7939 25.5661 16.0899 25.1464 16.3073C24.7267 16.5246 24.2396 16.637 23.6925 16.637C23.1192 16.637 22.6509 16.5059 22.2799 16.2398C21.9089 15.9738 21.7253 15.5878 21.7253 15.0782C21.7253 14.7297 21.8153 14.4337 21.9951 14.1977C22.175 13.9616 22.4298 13.7742 22.7558 13.6319C23.0818 13.4932 23.464 13.3883 23.9024 13.3246C24.1085 13.2946 24.3333 13.2609 24.5843 13.2234C24.8354 13.186 25.0865 13.141 25.3375 13.0923C25.5886 13.0436 25.8134 12.9874 26.0157 12.9274C26.2181 12.8674 26.3754 12.7963 26.4916 12.7213V14.1489H26.4953Z" fill="#0056FF"/>
<path d="M40.0824 5.31339C39.3292 5.31339 38.6623 5.52697 38.0852 5.95788C37.5082 6.38879 37.096 7.0183 36.8487 7.8539H36.71V5.50823H33.0941V18.9565H36.8224V11.3462C36.8224 10.7991 36.9461 10.312 37.1934 9.8923C37.4407 9.47263 37.7817 9.14289 38.2089 8.90682C38.6398 8.67076 39.1269 8.55085 39.674 8.55085C39.9325 8.55085 40.2135 8.56959 40.5246 8.61081C40.8318 8.65202 41.0754 8.69699 41.2515 8.74945V5.44079C41.0866 5.39957 40.8993 5.36959 40.6819 5.34336C40.4721 5.32837 40.2698 5.31339 40.0824 5.31339Z" fill="#0056FF"/>
<path d="M53.021 7.02952C52.4477 6.46371 51.7732 6.04029 51.0088 5.75551C50.2444 5.47073 49.4125 5.33209 48.5282 5.33209C47.2093 5.33209 46.0589 5.62436 45.0809 6.20891C44.1029 6.79345 43.346 7.60656 42.8102 8.652C42.2744 9.69743 42.0046 10.9115 42.0046 12.2941C42.0046 13.7143 42.2744 14.9396 42.8102 15.9775C43.346 17.0155 44.1142 17.8136 45.1072 18.3756C46.1001 18.9377 47.2917 19.2187 48.6744 19.2187C49.7835 19.2187 50.7615 19.0464 51.6121 18.7054C52.4627 18.3644 53.1559 17.8848 53.6954 17.2703C54.235 16.6557 54.5947 15.9326 54.7671 15.1045L51.316 14.8759C51.1886 15.2131 51.0013 15.5016 50.754 15.734C50.5104 15.9663 50.2144 16.1424 49.8697 16.2585C49.5249 16.3747 49.1465 16.4347 48.7306 16.4347C48.1048 16.4347 47.5652 16.3035 47.1118 16.0412C46.6547 15.7789 46.3062 15.4042 46.0552 14.9208C45.8079 14.4375 45.6842 13.8604 45.6842 13.1972V13.1897H54.842V12.1667C54.842 11.0239 54.6809 10.0234 54.3587 9.16909C54.0439 8.30727 53.5943 7.59907 53.021 7.02952ZM45.6954 10.874C45.7179 10.3906 45.8378 9.94848 46.0627 9.54755C46.3062 9.11289 46.6472 8.76441 47.0819 8.50586C47.5165 8.24731 48.0186 8.11617 48.5844 8.11617C49.1278 8.11617 49.6036 8.23607 50.0158 8.47214C50.428 8.7082 50.7502 9.0342 50.9826 9.45012C51.2149 9.86605 51.331 10.3419 51.331 10.8778H45.6954V10.874Z" fill="#0056FF"/>
<path d="M67.7577 7.02952C67.1844 6.46371 66.5099 6.04029 65.7455 5.75551C64.9774 5.47073 64.1493 5.33209 63.265 5.33209C61.946 5.33209 60.7957 5.62436 59.8177 6.20891C58.8397 6.79345 58.0828 7.60656 57.547 8.652C57.0111 9.69743 56.7413 10.9115 56.7413 12.2941C56.7413 13.7143 57.0111 14.9396 57.547 15.9775C58.0828 17.0155 58.8509 17.8136 59.8439 18.3756C60.8406 18.9377 62.0285 19.2187 63.4111 19.2187C64.5203 19.2187 65.4982 19.0464 66.3488 18.7054C67.1994 18.3644 67.8926 17.8848 68.4322 17.2703C68.9718 16.6557 69.3315 15.9326 69.5039 15.1045L66.0528 14.8759C65.9254 15.2131 65.7381 15.5016 65.4907 15.734C65.2472 15.9663 64.9512 16.1424 64.6064 16.2585C64.2617 16.3747 63.8833 16.4347 63.4673 16.4347C62.8416 16.4347 62.302 16.3035 61.8486 16.0412C61.3914 15.7789 61.043 15.4042 60.7919 14.9208C60.5446 14.4375 60.421 13.8604 60.421 13.1972V13.1897H69.5788V12.1667C69.5788 11.0239 69.4177 10.0234 69.0954 9.16909C68.7807 8.30727 68.331 7.59907 67.7577 7.02952ZM60.4322 10.874C60.4547 10.3906 60.5746 9.94848 60.7994 9.54755C61.043 9.11289 61.384 8.76441 61.8186 8.50586C62.2533 8.24731 62.7554 8.11617 63.3212 8.11617C63.8645 8.11617 64.3404 8.23607 64.7526 8.47214C65.1647 8.7082 65.487 9.0342 65.7193 9.45012C65.9516 9.86605 66.0678 10.3419 66.0678 10.8778H60.4322V10.874Z" fill="#0056FF"/>
<path d="M79.0034 5.31339C78.2502 5.31339 77.5833 5.52697 77.0062 5.95788C76.4292 6.38879 76.017 7.0183 75.7734 7.8539H75.6348V5.50823H72.0189V18.9565H75.7472V11.3462C75.7472 10.7991 75.8708 10.312 76.1182 9.8923C76.3655 9.47263 76.7064 9.14289 77.1336 8.90682C77.5645 8.67076 78.0516 8.55085 78.5987 8.55085C78.8573 8.55085 79.1383 8.56959 79.4493 8.61081C79.7603 8.65202 80.0001 8.69699 80.1762 8.74945V5.44079C80.0114 5.39957 79.824 5.36959 79.6067 5.34336C79.3931 5.32837 79.1908 5.31339 79.0034 5.31339Z" fill="#0056FF"/>
<path d="M82.7353 14.9995C82.1582 14.9995 81.6636 15.2056 81.2514 15.614C80.8393 16.0224 80.6332 16.5133 80.6332 17.0866C80.6332 17.6636 80.8393 18.1583 81.2514 18.5704C81.6636 18.9826 82.1582 19.1887 82.7353 19.1887C83.1137 19.1887 83.4622 19.095 83.777 18.9039C84.0917 18.7128 84.3465 18.4618 84.5414 18.1433C84.7362 17.8248 84.8336 17.4725 84.8336 17.0866C84.8336 16.5133 84.6238 16.0224 84.2041 15.614C83.7845 15.2018 83.2936 14.9995 82.7353 14.9995Z" fill="#0056FF"/>
<path d="M92.7137 15.884L98.8964 7.93267V5.50832H88.0486V8.48349H94.4037V8.58091L87.8201 16.7345V18.9565H99.125V15.9814H92.7137V15.884Z" fill="#0056FF"/>
<path d="M105.716 5.50832H101.987V18.9565H105.716V5.50832Z" fill="#0056FF"/>
<path d="M103.861 0C103.314 0 102.838 0.183606 102.441 0.554566C102.044 0.925526 101.845 1.36768 101.845 1.88103C101.845 2.40187 102.044 2.84403 102.441 3.21499C102.838 3.58595 103.314 3.76955 103.869 3.76955C104.423 3.76955 104.899 3.58595 105.293 3.21499C105.686 2.84403 105.885 2.39812 105.885 1.88103C105.885 1.36768 105.686 0.925526 105.293 0.554566C104.899 0.183606 104.423 0 103.861 0Z" fill="#0056FF"/>
<path d="M120.911 8.40094C120.416 7.37799 119.753 6.60984 118.925 6.09649C118.097 5.58689 117.19 5.33209 116.212 5.33209C115.459 5.33209 114.829 5.45949 114.323 5.71429C113.818 5.96909 113.409 6.28385 113.098 6.65856C112.787 7.03326 112.547 7.40422 112.386 7.76769H112.221V5.5082H108.545V24H112.274V16.8019H112.386C112.555 17.1766 112.802 17.5438 113.121 17.911C113.443 18.2745 113.855 18.578 114.361 18.8178C114.867 19.0576 115.481 19.1775 116.204 19.1775C117.227 19.1775 118.149 18.9152 118.977 18.3869C119.802 17.8585 120.457 17.0792 120.937 16.0487C121.42 15.0183 121.66 13.7518 121.66 12.2529C121.653 10.7091 121.405 9.42389 120.911 8.40094ZM117.516 14.3026C117.299 14.9021 116.976 15.3667 116.557 15.704C116.137 16.0412 115.624 16.2061 115.017 16.2061C114.417 16.2061 113.904 16.0412 113.484 15.7115C113.064 15.3817 112.742 14.9208 112.521 14.3251C112.3 13.7293 112.188 13.0323 112.188 12.2342C112.188 11.4361 112.3 10.7391 112.521 10.1508C112.742 9.56253 113.064 9.10539 113.48 8.78314C113.896 8.4609 114.41 8.29977 115.017 8.29977C115.631 8.29977 116.144 8.46464 116.568 8.79813C116.988 9.13162 117.306 9.59251 117.523 10.1808C117.741 10.7691 117.846 11.4548 117.846 12.2304C117.846 13.0136 117.737 13.703 117.516 14.3026Z" fill="#0056FF"/>
<rect x="128.5" y="10.5" width="43" height="13" rx="6.5" stroke="#0056FF"/>
<path d="M142.715 15.502C143.389 15.502 143.913 15.7461 144.287 16.2344C144.665 16.7227 144.854 17.4079 144.854 18.29C144.854 19.1755 144.663 19.8656 144.282 20.3604C143.901 20.8519 143.372 21.0977 142.695 21.0977C142.012 21.0977 141.481 20.8519 141.104 20.3604H141.025L140.815 21H139.956V13.4023H141.104V15.209C141.104 15.3424 141.097 15.541 141.084 15.8047C141.071 16.0684 141.061 16.236 141.055 16.3076H141.104C141.468 15.7705 142.005 15.502 142.715 15.502ZM142.417 16.4395C141.955 16.4395 141.621 16.5762 141.416 16.8496C141.214 17.1198 141.11 17.5739 141.104 18.2119V18.29C141.104 18.9476 141.208 19.4245 141.416 19.7207C141.624 20.0137 141.965 20.1602 142.437 20.1602C142.843 20.1602 143.151 19.999 143.359 19.6768C143.571 19.3545 143.677 18.889 143.677 18.2803C143.677 17.0531 143.257 16.4395 142.417 16.4395ZM148.545 21.0977C147.705 21.0977 147.048 20.8535 146.572 20.3652C146.1 19.8737 145.864 19.1982 145.864 18.3389C145.864 17.4567 146.084 16.7633 146.523 16.2588C146.963 15.7542 147.567 15.502 148.335 15.502C149.048 15.502 149.611 15.7184 150.024 16.1514C150.438 16.5843 150.645 17.18 150.645 17.9385V18.5586H147.046C147.062 19.0827 147.204 19.4863 147.471 19.7695C147.738 20.0495 148.114 20.1895 148.599 20.1895C148.918 20.1895 149.214 20.1602 149.487 20.1016C149.764 20.0397 150.06 19.9388 150.376 19.7988V20.7314C150.096 20.8649 149.813 20.9593 149.526 21.0146C149.24 21.07 148.913 21.0977 148.545 21.0977ZM148.335 16.3711C147.97 16.3711 147.677 16.4867 147.456 16.7178C147.238 16.9489 147.108 17.2858 147.065 17.7285H149.517C149.51 17.2826 149.403 16.9456 149.194 16.7178C148.986 16.4867 148.7 16.3711 148.335 16.3711ZM153.96 20.1699C154.24 20.1699 154.52 20.126 154.8 20.0381V20.9023C154.673 20.9577 154.508 21.0033 154.307 21.0391C154.108 21.0781 153.901 21.0977 153.687 21.0977C152.599 21.0977 152.056 20.5247 152.056 19.3789V16.4688H151.318V15.9609L152.109 15.541L152.5 14.3984H153.208V15.5996H154.746V16.4688H153.208V19.3594C153.208 19.6361 153.276 19.8411 153.413 19.9746C153.553 20.1048 153.735 20.1699 153.96 20.1699ZM159.263 21L159.033 20.248H158.994C158.734 20.5768 158.472 20.8014 158.208 20.9219C157.944 21.0391 157.606 21.0977 157.192 21.0977C156.662 21.0977 156.247 20.9544 155.947 20.668C155.651 20.3815 155.503 19.9762 155.503 19.4521C155.503 18.8955 155.71 18.4756 156.123 18.1924C156.536 17.9092 157.166 17.7546 158.013 17.7285L158.945 17.6992V17.4111C158.945 17.0661 158.864 16.8089 158.701 16.6396C158.542 16.4671 158.293 16.3809 157.954 16.3809C157.677 16.3809 157.412 16.4215 157.158 16.5029C156.904 16.5843 156.66 16.6803 156.426 16.791L156.055 15.9707C156.348 15.8177 156.668 15.7021 157.017 15.624C157.365 15.5426 157.694 15.502 158.003 15.502C158.69 15.502 159.207 15.6517 159.556 15.9512C159.907 16.2507 160.083 16.721 160.083 17.3623V21H159.263ZM157.554 20.2188C157.97 20.2188 158.304 20.1032 158.555 19.8721C158.809 19.6377 158.936 19.3105 158.936 18.8906V18.4219L158.242 18.4512C157.702 18.4707 157.308 18.5618 157.061 18.7246C156.816 18.8841 156.694 19.1299 156.694 19.4619C156.694 19.7028 156.766 19.89 156.909 20.0234C157.052 20.1536 157.267 20.2188 157.554 20.2188Z" fill="#0056FF"/>
</svg>
