<svg width="204" height="40" viewBox="0 0 204 40" fill="none" xmlns="http://www.w3.org/2000/svg">
<path d="M10.0234 8.03097C11.1725 7.26907 12.5215 6.88811 14.064 6.88811C14.9196 6.88811 15.7127 7.01302 16.4497 7.25033C17.1866 7.49389 17.8361 7.84362 18.3981 8.29951C18.9602 8.75541 19.4223 9.31122 19.7846 9.95447C20.1468 10.604 20.3841 11.3409 20.5028 12.1652H26.8915C26.6854 10.4353 26.2233 8.89904 25.4989 7.55634C24.7744 6.21364 23.8376 5.07703 22.6885 4.1465C21.5394 3.21598 20.2217 2.51028 18.7416 2.02316C17.2553 1.53604 15.6503 1.29248 13.9204 1.29248C11.2912 1.29248 8.93053 1.89201 6.82592 3.09732C4.72756 4.29639 3.06011 6.04502 1.83607 8.33074C0.612022 10.6165 0 13.3893 0 16.6492C0 19.8967 0.605777 22.6695 1.81733 24.9553C3.02889 27.241 4.68384 28.9896 6.78221 30.1949C8.88057 31.4002 11.26 32.006 13.9266 32.006C15.8439 32.006 17.5613 31.7187 19.0851 31.1379C20.6089 30.5571 21.9204 29.7703 23.0258 28.771C24.1312 27.7718 25.0117 26.6414 25.6675 25.3737C26.3232 24.1059 26.7354 22.782 26.8978 21.4143L20.509 21.3831C20.3654 22.1824 20.1031 22.8944 19.7284 23.5126C19.3536 24.1309 18.8853 24.6617 18.317 25.0989C17.7549 25.5298 17.1054 25.8608 16.381 26.0856C15.6565 26.3105 14.8696 26.4229 14.0266 26.4229C12.5152 26.4229 11.1913 26.0544 10.0422 25.3112C8.89306 24.5743 8.00001 23.4752 7.363 22.0263C6.726 20.5774 6.4075 18.7851 6.4075 16.6555C6.4075 14.5821 6.726 12.821 7.35676 11.3659C7.98752 9.90451 8.87432 8.79912 10.0234 8.03097Z" fill="#B0B8C1"/>
<path d="M47.4502 10.6791C46.5572 10.067 45.5455 9.61115 44.4026 9.32388C43.2598 9.03036 42.0669 8.88672 40.8179 8.88672C39.0256 8.88672 37.4518 9.15526 36.0966 9.69859C34.7414 10.2357 33.636 11.0101 32.7742 12.003C31.9186 13.0023 31.3441 14.1826 31.0505 15.544L36.8023 16.0124C37.0146 15.2755 37.4518 14.6572 38.1138 14.1639C38.7758 13.6705 39.6626 13.4269 40.7867 13.4269C41.8484 13.4269 42.6665 13.683 43.2473 14.1888C43.8281 14.6947 44.1153 15.4129 44.1153 16.3372V16.4246C44.1153 16.8992 43.9342 17.2614 43.5783 17.505C43.216 17.7486 42.6415 17.9297 41.8421 18.0546C41.0427 18.1795 39.9936 18.3044 38.6883 18.4418C37.5767 18.5479 36.5213 18.7353 35.5158 18.9976C34.5103 19.2599 33.611 19.6471 32.8242 20.1654C32.0373 20.6838 31.4128 21.3645 30.9569 22.2076C30.501 23.0569 30.2699 24.0998 30.2699 25.3426C30.2699 26.8227 30.5946 28.053 31.2379 29.0397C31.8874 30.0265 32.7679 30.7696 33.8858 31.2755C35.0037 31.7751 36.2777 32.0249 37.7078 32.0249C38.8195 32.0249 39.7937 31.875 40.6431 31.5815C41.4861 31.288 42.2168 30.8696 42.8164 30.3387C43.4221 29.8079 43.903 29.1959 44.259 28.4902H44.4338V31.6002H50.3292V16.4745C50.3292 15.1443 50.0732 13.9952 49.5548 13.0397C49.0427 12.078 48.337 11.2973 47.4502 10.6791ZM44.1591 23.5815C44.1591 24.3684 43.9592 25.0741 43.5595 25.6986C43.1598 26.3231 42.6103 26.8165 41.9108 27.1787C41.2114 27.5409 40.3995 27.7283 39.4877 27.7283C38.5322 27.7283 37.7516 27.5097 37.1333 27.0663C36.515 26.6229 36.209 25.9796 36.209 25.1303C36.209 24.5495 36.3589 24.0561 36.6587 23.6627C36.9584 23.2692 37.3831 22.957 37.9264 22.7197C38.4697 22.4886 39.1068 22.3137 39.8374 22.2076C40.1809 22.1576 40.5556 22.1014 40.974 22.039C41.3925 21.9765 41.8109 21.9016 42.2293 21.8204C42.6477 21.7392 43.0224 21.6455 43.3597 21.5456C43.6969 21.4457 43.9592 21.327 44.1528 21.2021V23.5815H44.1591Z" fill="#B0B8C1"/>
<path d="M66.804 8.85547C65.5488 8.85547 64.4371 9.21144 63.4754 9.92963C62.5136 10.6478 61.8267 11.697 61.4145 13.0897H61.1834V9.18022H55.1569V31.594H61.3708V18.9101C61.3708 17.9983 61.5769 17.1865 61.989 16.487C62.4012 15.7876 62.9695 15.238 63.6815 14.8445C64.3996 14.4511 65.2115 14.2513 66.1233 14.2513C66.5542 14.2513 67.0226 14.2825 67.5409 14.3512C68.053 14.4199 68.459 14.4948 68.7525 14.5822V9.0678C68.4777 8.99911 68.1655 8.94915 67.8032 8.90543C67.4535 8.88045 67.1163 8.85547 66.804 8.85547Z" fill="#B0B8C1"/>
<path d="M88.3686 11.7158C87.4131 10.7727 86.289 10.067 85.015 9.59242C83.741 9.11779 82.3545 8.88672 80.8807 8.88672C78.6824 8.88672 76.7652 9.37384 75.1352 10.3481C73.5052 11.3223 72.2437 12.6775 71.3506 14.4199C70.4576 16.1623 70.0079 18.1857 70.0079 20.4902C70.0079 22.8571 70.4576 24.8992 71.3506 26.6291C72.2437 28.359 73.5239 29.6892 75.1789 30.626C76.8339 31.5628 78.8198 32.0312 81.1243 32.0312C82.9728 32.0312 84.6028 31.7439 86.0204 31.1756C87.4381 30.6073 88.5934 29.8079 89.4927 28.7837C90.392 27.7595 90.9916 26.5542 91.2788 25.174L85.5271 24.7931C85.3147 25.3551 85.0025 25.836 84.5903 26.2232C84.1844 26.6104 83.691 26.9039 83.1165 27.0975C82.5419 27.2911 81.9111 27.391 81.2179 27.391C80.175 27.391 79.2757 27.1725 78.52 26.7353C77.7581 26.2981 77.1773 25.6736 76.7589 24.868C76.3467 24.0624 76.1406 23.1006 76.1406 21.9952V21.9828H91.4037V20.2778C91.4037 18.3731 91.1352 16.7056 90.5981 15.2817C90.0735 13.8453 89.3241 12.665 88.3686 11.7158ZM76.1594 18.1233C76.1969 17.3176 76.3967 16.5807 76.7714 15.9125C77.1773 15.1881 77.7456 14.6073 78.4701 14.1763C79.1945 13.7454 80.0314 13.5268 80.9744 13.5268C81.8799 13.5268 82.673 13.7267 83.36 14.1201C84.047 14.5136 84.5841 15.0569 84.9713 15.7501C85.3585 16.4433 85.5521 17.2365 85.5521 18.1295H76.1594V18.1233Z" fill="#B0B8C1"/>
<path d="M112.93 11.7158C111.974 10.7727 110.85 10.067 109.576 9.59242C108.296 9.11779 106.916 8.88672 105.442 8.88672C103.244 8.88672 101.326 9.37384 99.6965 10.3481C98.0665 11.3223 96.805 12.6775 95.9119 14.4199C95.0189 16.1623 94.5692 18.1857 94.5692 20.4902C94.5692 22.8571 95.0189 24.8992 95.9119 26.6291C96.805 28.359 98.0852 29.6892 99.7402 30.626C101.401 31.5628 103.381 32.0312 105.686 32.0312C107.534 32.0312 109.164 31.7439 110.582 31.1756C111.999 30.6073 113.155 29.8079 114.054 28.7837C114.953 27.7595 115.553 26.5542 115.84 25.174L110.088 24.7931C109.876 25.3551 109.564 25.836 109.152 26.2232C108.746 26.6104 108.252 26.9039 107.678 27.0975C107.103 27.2911 106.472 27.391 105.779 27.391C104.736 27.391 103.837 27.1725 103.081 26.7353C102.319 26.2981 101.739 25.6736 101.32 24.868C100.908 24.0624 100.702 23.1006 100.702 21.9952V21.9828H115.965V20.2778C115.965 18.3731 115.696 16.7056 115.159 15.2817C114.635 13.8453 113.885 12.665 112.93 11.7158ZM100.721 18.1233C100.758 17.3176 100.958 16.5807 101.333 15.9125C101.739 15.1881 102.307 14.6073 103.031 14.1763C103.756 13.7454 104.593 13.5268 105.536 13.5268C106.441 13.5268 107.234 13.7267 107.921 14.1201C108.608 14.5136 109.145 15.0569 109.533 15.7501C109.92 16.4433 110.113 17.2365 110.113 18.1295H100.721V18.1233Z" fill="#B0B8C1"/>
<path d="M131.672 8.85547C130.417 8.85547 129.306 9.21144 128.344 9.92963C127.382 10.6478 126.695 11.697 126.289 13.0897H126.058V9.18022H120.031V31.594H126.245V18.9101C126.245 17.9983 126.451 17.1865 126.864 16.487C127.276 15.7876 127.844 15.238 128.556 14.8445C129.274 14.4511 130.086 14.2513 130.998 14.2513C131.429 14.2513 131.897 14.2825 132.416 14.3512C132.934 14.4199 133.334 14.4948 133.627 14.5822V9.0678C133.352 8.99911 133.04 8.94915 132.678 8.90543C132.322 8.88045 131.985 8.85547 131.672 8.85547Z" fill="#B0B8C1"/>
<path d="M137.892 24.999C136.93 24.999 136.106 25.3425 135.419 26.0232C134.732 26.7039 134.389 27.5221 134.389 28.4776C134.389 29.4393 134.732 30.2637 135.419 30.9506C136.106 31.6376 136.93 31.9811 137.892 31.9811C138.523 31.9811 139.104 31.8249 139.628 31.5064C140.153 31.1879 140.578 30.7695 140.902 30.2387C141.227 29.7078 141.389 29.1208 141.389 28.4776C141.389 27.5221 141.04 26.7039 140.34 26.0232C139.641 25.3363 138.823 24.999 137.892 24.999Z" fill="#B0B8C1"/>
<path d="M154.523 26.4732L164.828 13.221V9.18042H146.748V14.1391H157.34V14.3014L146.367 27.8908V31.5942H165.208V26.6355H154.523V26.4732Z" fill="#B0B8C1"/>
<path d="M176.193 9.18042H169.979V31.5942H176.193V9.18042Z" fill="#B0B8C1"/>
<path d="M173.102 0C172.191 0 171.397 0.306011 170.735 0.924279C170.073 1.54255 169.742 2.27947 169.742 3.13505C169.742 4.00313 170.073 4.74005 170.735 5.35832C171.397 5.97659 172.191 6.2826 173.115 6.2826C174.039 6.2826 174.832 5.97659 175.488 5.35832C176.144 4.74005 176.475 3.99688 176.475 3.13505C176.475 2.27947 176.144 1.54255 175.488 0.924279C174.832 0.306011 174.039 0 173.102 0Z" fill="#B0B8C1"/>
<path d="M201.779 14.0015C200.955 12.2966 199.85 11.0163 198.47 10.1607C197.089 9.31139 195.578 8.88672 193.948 8.88672C192.693 8.88672 191.644 9.09905 190.801 9.52372C189.957 9.94839 189.277 10.473 188.758 11.0975C188.24 11.722 187.84 12.3403 187.572 12.9461H187.297V9.18024H181.171V39.9999H187.384V28.003H187.572C187.853 28.6276 188.265 29.2396 188.796 29.8516C189.333 30.4574 190.02 30.9632 190.863 31.3629C191.706 31.7626 192.73 31.9625 193.936 31.9625C195.64 31.9625 197.177 31.5253 198.557 30.6447C199.931 29.7642 201.024 28.4652 201.823 26.7478C202.629 25.0304 203.028 22.9195 203.028 20.4215C203.016 17.8485 202.604 15.7064 201.779 14.0015ZM196.121 23.8375C195.759 24.8368 195.222 25.6112 194.523 26.1732C193.823 26.7353 192.968 27.0101 191.956 27.0101C190.957 27.0101 190.101 26.7353 189.402 26.1857C188.702 25.6361 188.165 24.868 187.797 23.875C187.428 22.882 187.241 21.7205 187.241 20.3902C187.241 19.06 187.428 17.8984 187.797 16.918C188.165 15.9375 188.702 15.1756 189.395 14.6385C190.089 14.1014 190.944 13.8329 191.956 13.8329C192.98 13.8329 193.836 14.1076 194.541 14.6635C195.241 15.2193 195.772 15.9874 196.134 16.9679C196.496 17.9484 196.671 19.0913 196.671 20.384C196.671 21.6892 196.49 22.8383 196.121 23.8375Z" fill="#B0B8C1"/>
</svg>
