<svg width="42" height="24" viewBox="0 0 42 24" fill="none" xmlns="http://www.w3.org/2000/svg">
<path d="M2.10211 14.9995C1.52506 14.9995 1.03044 15.2056 0.618264 15.614C0.206087 16.0225 0 16.5133 0 17.0866C0 17.6637 0.206087 18.1583 0.618264 18.5705C1.03044 18.9826 1.52506 19.1887 2.10211 19.1887C2.48056 19.1887 2.82904 19.0951 3.14379 18.904C3.45854 18.7129 3.71334 18.4618 3.90819 18.1433C4.10304 17.8248 4.20046 17.4726 4.20046 17.0866C4.20046 16.5133 3.99063 16.0225 3.57096 15.614C3.15128 15.2019 2.66042 14.9995 2.10211 14.9995Z" fill="#0056FF"/>
<path d="M12.0802 15.8839L18.2629 7.93265V5.5083H7.41509V8.48347H13.7701V8.5809L7.18652 16.7345V18.9565H18.4914V15.9814H12.0802V15.8839Z" fill="#0056FF"/>
<path d="M25.0828 5.5083H21.3545V18.9565H25.0828V5.5083Z" fill="#0056FF"/>
<path d="M23.2278 0C22.6808 0 22.2049 0.183606 21.8077 0.554566C21.4105 0.925526 21.2119 1.36768 21.2119 1.88103C21.2119 2.40187 21.4105 2.84403 21.8077 3.21499C22.2049 3.58595 22.6808 3.76955 23.2353 3.76955C23.7899 3.76955 24.2658 3.58595 24.6592 3.21499C25.0527 2.84403 25.2513 2.39812 25.2513 1.88103C25.2513 1.36768 25.0527 0.925526 24.6592 0.554566C24.2658 0.183606 23.7899 0 23.2278 0Z" fill="#0056FF"/>
<path d="M40.2774 8.401C39.7828 7.37805 39.1196 6.6099 38.2915 6.09656C37.4634 5.58695 36.5566 5.33215 35.5786 5.33215C34.8254 5.33215 34.1959 5.45955 33.6901 5.71435C33.1842 5.96916 32.7758 6.28391 32.4648 6.65862C32.1538 7.03332 31.914 7.40428 31.7529 7.76775H31.588V5.50827H27.9121V24.0001H31.6404V16.8019H31.7529C31.9215 17.1766 32.1688 17.5439 32.4873 17.9111C32.8095 18.2745 33.2217 18.578 33.7276 18.8179C34.2334 19.0577 34.8479 19.1776 35.5711 19.1776C36.5941 19.1776 37.5158 18.9153 38.3439 18.3869C39.1683 17.8586 39.824 17.0792 40.3037 16.0488C40.787 15.0183 41.0269 13.7518 41.0269 12.253C41.0194 10.7092 40.7721 9.42395 40.2774 8.401ZM36.8826 14.3026C36.6653 14.9022 36.343 15.3668 35.9233 15.704C35.5037 16.0413 34.9903 16.2061 34.3833 16.2061C33.7838 16.2061 33.2704 16.0413 32.8507 15.7115C32.4311 15.3818 32.1088 14.9209 31.8877 14.3251C31.6667 13.7293 31.5543 13.0324 31.5543 12.2343C31.5543 11.4361 31.6667 10.7392 31.8877 10.1509C32.1088 9.56259 32.4311 9.10545 32.847 8.7832C33.2629 8.46096 33.7763 8.29983 34.3833 8.29983C34.9978 8.29983 35.5112 8.4647 35.9346 8.79819C36.3543 9.13168 36.6728 9.59257 36.8901 10.1809C37.1074 10.7692 37.2123 11.4549 37.2123 12.2305C37.2123 13.0136 37.1037 13.7031 36.8826 14.3026Z" fill="#0056FF"/>
</svg>
