<svg width="24" height="24" viewBox="0 0 24 24" fill="none" xmlns="http://www.w3.org/2000/svg">
<path fill-rule="evenodd" clip-rule="evenodd" d="M23.4671 12.2729C23.4671 11.422 23.3909 10.6038 23.2494 9.81836H11.973V14.4602H18.4167C18.1391 15.9602 17.2956 17.2311 16.0275 18.082V21.0929H19.897C22.161 19.0038 23.4671 15.9274 23.4671 12.2729Z" fill="#4285F4"/>
<path fill-rule="evenodd" clip-rule="evenodd" d="M11.973 23.9998C15.2057 23.9998 17.916 22.9252 19.8969 21.0925L16.0275 18.0816C14.9553 18.8016 13.5839 19.2271 11.973 19.2271C8.85454 19.2271 6.21503 17.1161 5.27352 14.2798H1.27344V17.3889C3.24355 21.3107 7.29261 23.9998 11.973 23.9998Z" fill="#34A853"/>
<path fill-rule="evenodd" clip-rule="evenodd" d="M5.27358 14.2799C5.03412 13.5599 4.89806 12.7908 4.89806 11.9999C4.89806 11.209 5.03412 10.4399 5.27358 9.71993V6.61084H1.2735C0.462594 8.23084 0 10.0636 0 11.9999C0 13.9363 0.462594 15.769 1.2735 17.389L5.27358 14.2799Z" fill="#FBBC05"/>
<path fill-rule="evenodd" clip-rule="evenodd" d="M11.973 4.77273C13.7308 4.77273 15.3091 5.37818 16.5499 6.56727L19.984 3.12545C17.9105 1.18909 15.2003 0 11.973 0C7.29261 0 3.24355 2.68909 1.27344 6.61091L5.27352 9.72C6.21503 6.88364 8.85454 4.77273 11.973 4.77273Z" fill="#EA4335"/>
</svg>
