<svg width="40" height="40" viewBox="0 0 40 40" fill="none" xmlns="http://www.w3.org/2000/svg">
<circle cx="20" cy="20" r="20" fill="#F9FAFB"/>
<path d="M20.0003 11.6666C18.1594 11.6666 16.667 13.159 16.667 15C16.667 16.8409 18.1594 18.3333 20.0003 18.3333C21.8413 18.3333 23.3337 16.8409 23.3337 15C23.3337 13.159 21.8413 11.6666 20.0003 11.6666ZM18.3337 15C18.3337 14.0795 19.0799 13.3333 20.0003 13.3333C20.9208 13.3333 21.667 14.0795 21.667 15C21.667 15.9204 20.9208 16.6666 20.0003 16.6666C19.0799 16.6666 18.3337 15.9204 18.3337 15Z" fill="white"/>
<circle cx="20" cy="15" r="5" fill="#DFDFDF"/>
<path d="M19.9997 20.8334C15.2744 20.8334 11.3843 24.4087 10.8868 29.0016C10.8273 29.5507 11.2807 30 11.833 30H28.1663C28.7186 30 29.1721 29.5507 29.1126 29.0016C28.6151 24.4087 24.7249 20.8334 19.9997 20.8334Z" fill="#DFDFDF"/>
</svg>
